<?xml version="1.0" encoding="UTF-8"?><svg id="Layer_2" xmlns="http://www.w3.org/2000/svg" viewBox="0 0 596.03 90.39"><defs><style>.cls-1fill: #141313;;}</style></defs><g id="Layer_1-2"><g><path class="cls-1" d="M52.03,3.4h-.01V1.27c0-.7,.57-1.27,1.27-1.27,.06,0,.11,0,.17,.01,.02,0,.03,0,.06,0,16.45,2.91,29.85,14.66,35.13,30.16,0,0,0,.01,0,.01,.04,.12,.06,.25,.06,.39,0,.7-.56,1.27-1.27,1.27h-27.72s-.08,0-.12-.01h0s-.08-.01-.11-.02h-.01c-.41-.09-.75-.38-.91-.76l-2.2-5.34c-2.98-7.9-4.39-15.42-4.32-22.32M26.1,46.61h0s.01-.03,.01-.03c.06-.15,.09-.3,.09-.47,0-.7-.57-1.27-1.27-1.27H1.27c-.7,0-1.26,.56-1.27,1.25,0,.02,0,.03,0,.04,.33,11.46,4.88,21.86,12.16,29.69,0,.01,.02,.02,.03,.03,.23,.23,.55,.38,.9,.38,.53,0,.98-.32,1.17-.78l11.84-28.86Zm40.15,37.49h0s-.01-.03-.02-.04l-14.27-34.79s-.01-.04-.02-.05c-1.01-2.55-3.51-4.35-6.43-4.35-2.74,0-5.1,1.59-6.23,3.9l-14.49,35.31h0s0,.01,0,.01c-.06,.15-.09,.31-.09,.48,0,.47,.25,.88,.63,1.1,.01,.01,.03,.02,.05,.04,6.08,3,12.92,4.69,20.14,4.69s14.07-1.69,20.14-4.69c0,0,.02,0,.02-.01,.4-.22,.67-.63,.67-1.12,0-.17-.03-.32-.09-.47m24.78-37.93v-.05h0c0-.71-.57-1.27-1.27-1.27h-23.67c-.7,0-1.26,.56-1.26,1.27,0,.18,.03,.34,.1,.5l11.85,28.86c.19,.46,.64,.78,1.17,.78,.34,0,.65-.14,.88-.36,.02-.01,.03-.03,.05-.05,7.27-7.83,11.82-18.22,12.15-29.67M3.61,31.85H31.33s.06,0,.09-.01c.49-.04,.89-.35,1.07-.78h0l2.2-5.36c3-7.88,4.39-15.4,4.33-22.3h0V1.27c0-.7-.57-1.27-1.27-1.27-.06,0-.12,0-.17,.01-.02,0-.04,0-.06,0C21.08,2.93,7.68,14.67,2.41,30.16c0,.01,0,.02-.01,.03-.04,.12-.06,.25-.06,.39,0,.7,.57,1.27,1.27,1.27"/><g><path class="cls-1" d="M515.82,18.11h4.05s.04,0,.06-.02l9.11-5.03s.02-.01,.03-.02c.27-.14,.5-.39,.6-.65,.15-.43-.07-.77-.49-.78h-5.97s-.06,0-.08,.03l-7.25,5.06c-.25,.15-.46,.38-.55,.63-.16,.43,.06,.78,.49,.78"/><path class="cls-1" d="M507.12,45.72c3.3,0,7.28-1.01,10.37-2.64,.02,0,.04,0,.06-.01,.34-.17,.69-.25,1.01-.25,.98,0,1.5,.77,1.22,1.79l-.07,.19c-.02,.06,0,.1,.07,.1h6.18c.06,0,.12-.04,.14-.1l8.64-23.76c.03-.06,0-.1-.06-.1h-6.18c-.06,0-.12,.05-.14,.1l-1.55,4.26-.6-.99c-1.62-2.7-5-4.19-9.53-4.19-4.91,0-9.57,1.42-13.87,4.23-3.75,2.41-6,5.05-7.28,8.57-1.2,3.3-.89,6.4,.87,8.72,2.05,2.63,5.85,4.08,10.71,4.08m-4.61-12.57c.7-1.92,2.07-3.69,3.97-5.13,2.71-2.05,6.16-3.18,9.7-3.18h.27c3.36,0,5.95,1.12,7.12,3.08,.83,1.39,.91,3.1,.24,4.95-.69,1.89-2.03,3.63-3.89,5.03-2.64,1.99-6,3.09-9.48,3.09h-.13s-.12,0-.12,0c-3.42,0-6.18-1.22-7.4-3.25-.79-1.33-.89-2.92-.28-4.6"/><path class="cls-1" d="M260.57,18.06h4.05s.04,0,.06-.02l9.11-5.03s.02,0,.03-.02c.27-.14,.5-.39,.59-.65,.15-.43-.07-.78-.49-.78h-5.97s-.05,0-.07,.03l-7.26,5.06c-.25,.14-.46,.38-.55,.63-.16,.43,.06,.78,.49,.78"/><path class="cls-1" d="M280.37,23.8c1.15-.33,2.17-.79,3.01-1.37,.84-.57,1.56-1.26,2.13-2.04,.57-.78,1.04-1.62,1.4-2.51l.97-2.39c.02-.06-.01-.1-.07-.1h-5.35c-.07,0-.13,.05-.16,.1l-1.1,2.72c-.2,.49-.45,.91-.77,1.26-.32,.35-.67,.64-1.06,.86-.39,.22-.81,.38-1.26,.48-.39,.09-.8,.13-1.21,.15h-6.41c-.05,0-.12,.05-.14,.1l-4.24,11.65c-.74,2.05-3.02,8.31-11.6,8.31-3.08,0-5.34-1.06-6.04-2.84-.59-1.49-.01-3.51,.7-5.47l4.24-11.65c.02-.06,0-.1-.06-.1h-6.77c-.06,0-.12,.05-.14,.1l-4.92,13.51c-1.2,3.3-.99,6.14,.57,7.79,2.29,2.34,5.23,3.38,9.54,3.38,2.25,0,5.65-.41,9.01-2.35,.29-.15,.59-.22,.86-.22,.87,0,1.3,.74,.97,1.65-.02,.06,.01,.1,.07,.1h6.01c.06,0,.12-.05,.14-.1l7.47-20.52c.06,0,.12,0,.18,0,1.54,0,2.9-.17,4.05-.5"/><path class="cls-1" d="M567.99,23.5c-2.29-2.33-5.24-3.38-9.53-3.38-2.25,0-5.64,.41-9.01,2.35-.3,.15-.59,.23-.86,.23-.87,0-1.3-.74-.97-1.65,.02-.06-.01-.1-.06-.1h-6.01c-.06,0-.12,.05-.14,.1l-8.64,23.76c-.03,.06,0,.1,.07,.1h6.77c.06,0,.12-.04,.14-.1l4.24-11.65c.75-2.05,3.02-8.3,11.6-8.3,3.08,0,5.34,1.06,6.05,2.83,.59,1.49,.01,3.51-.7,5.47l-4.24,11.65c-.02,.06,.01,.1,.07,.1h6.77c.06,0,.12-.04,.14-.1l4.92-13.51c1.2-3.3,.99-6.14-.57-7.79"/><path class="cls-1" d="M469.54,45.7c9.6,0,19.5-5.72,22.06-12.76,2.58-7.08-2.98-12.84-12.39-12.84s-19.65,5.64-22.27,12.84c-1.23,3.38-.58,6.57,1.82,9,2.4,2.43,6.22,3.76,10.78,3.76m-5.21-12.76c.75-2.05,2.38-3.85,4.73-5.22,2.3-1.41,5.38-2.32,7.87-2.32,5.63,0,8.83,3.31,7.29,7.53-1.54,4.25-7.02,7.45-12.75,7.45s-8.64-3.34-7.14-7.45"/><path class="cls-1" d="M174.76,45.7c7.2,0,15.49-3.46,20.63-8.61,0,0,.02-.02,.02-.03,.13-.13,.22-.28,.28-.42,.15-.43-.06-.79-.48-.81,0,0-.02,0-.04,0h-7.02s-.05,.01-.08,.03c-3.73,2.52-7.62,3.85-11.24,3.85-6.9,0-11.03-5.27-8.84-11.27,2.31-6.34,9.97-11.5,17.08-11.5,3.85,0,7.21,1.58,8.76,4.12,.01,.02,.04,.03,.06,.03h6.83s.02,0,.03,0c.45,0,.94-.36,1.11-.81,.05-.14,.06-.26,.04-.39v-.03c-1.35-5.41-7.13-8.9-14.71-8.9-10.9,0-22.99,7.91-26.39,17.27-1.68,4.62-1.16,8.99,1.46,12.31,2.64,3.34,7.08,5.18,12.49,5.18"/><path class="cls-1" d="M199.9,44.9h6.85c.06,0,.12-.04,.14-.1l4.88-13.41c1.27-2.65,4.11-6.54,10.87-6.54,3.08,0,5.34,1.06,6.04,2.83,.59,1.49,.01,3.51-.7,5.47l-4.24,11.65c-.02,.06,0,.1,.06,.1h6.77c.06,0,.12-.04,.14-.1l4.92-13.51c1.2-3.3,.99-6.14-.57-7.79-2.29-2.34-5.23-3.38-9.54-3.38-2.25,0-6.2,1.2-8.18,2.35-.3,.15-.59,.23-.86,.23-.82,0-1.25-.66-1.02-1.5l3.11-8.55c.02-.06-.01-.11-.07-.11h-6.85c-.06,0-.12,.05-.14,.11l-11.7,32.15c-.02,.06,0,.1,.07,.1"/><path class="cls-1" d="M416.45,44.9h6.85c.06,0,.12-.04,.14-.1l4.88-13.41c1.27-2.65,4.11-6.54,10.87-6.54,3.08,0,5.34,1.06,6.05,2.83,.59,1.49,.01,3.51-.7,5.47l-4.24,11.65c-.02,.06,.01,.1,.07,.1h6.77c.06,0,.12-.04,.14-.1l4.92-13.51c1.2-3.3,.99-6.14-.57-7.79-2.29-2.34-5.24-3.38-9.54-3.38-2.25,0-6.2,1.2-8.18,2.35-.3,.15-.59,.23-.86,.23-.81,0-1.25-.66-1.02-1.5l3.11-8.55c.02-.06,0-.11-.07-.11h-6.85c-.06,0-.12,.05-.14,.11l-11.7,32.15c-.02,.06,0,.1,.07,.1"/><path class="cls-1" d="M302.25,24.84c3.08,0,5.34,1.06,6.05,2.83,.59,1.49,.01,3.51-.7,5.47l-4.24,11.65c-.02,.06,.01,.11,.07,.11h6.77c.06,0,.12-.05,.14-.11l4.92-13.51c1.2-3.3,.99-6.14-.57-7.79-2.29-2.34-5.24-3.38-9.54-3.38-2.25,0-5.64,.41-9.01,2.35-.3,.15-.59,.23-.86,.23-.87,0-1.3-.74-.97-1.65,.02-.06,0-.1-.07-.1h-6.01c-.06,0-.12,.05-.14,.1l-8.65,23.75c-.02,.06,.01,.11,.07,.11h6.78c.05,0,.12-.05,.14-.11l4.24-11.65c.75-2.05,3.02-8.3,11.6-8.3"/><path class="cls-1" d="M411.97,43.49l-9.73-14.54,20-14.75c.2-.15,.35-.35,.43-.56,.16-.44-.07-.81-.53-.81h-.03s-7.39,0-7.39,0c-.03,0-.06,0-.09,.03l-18.89,13.78,5.18-14.03c.02-.06-.01-.1-.07-.1h-7.59c-.06,0-.12,.05-.14,.1l-11.89,32.17c-.02,.06,0,.1,.07,.1h7.59c.06,0,.12-.05,.15-.1l5.3-14.36,8.92,14.44s.04,.03,.07,.03h7.56c.45,0,.95-.36,1.12-.81,.08-.22,.07-.43-.03-.58,0,0,0-.02-.01-.02"/><path class="cls-1" d="M236.81,53.34s-.06-.05-.09-.05h-6.15s-.08,.03-.1,.07l-1.56,4.29-.6-.99c-1.61-2.7-5-4.19-9.53-4.19-4.91,0-9.57,1.42-13.87,4.23-3.75,2.41-6,5.05-7.28,8.57-1.2,3.3-.89,6.4,.87,8.72,2.05,2.63,5.85,4.08,10.71,4.08,3.29,0,7.27-1.02,10.38-2.64,.02,0,.03,0,.05-.01,.34-.17,.7-.25,1.02-.25,.44,0,.81,.17,1.04,.46,.26,.34,.32,.82,.18,1.33l-.05,.15s-.01,.07,.01,.1c.02,.03,.05,.05,.09,.05h6.15s.09-.03,.1-.07c.62-1.7,7.86-21.58,8.65-23.74,.01-.03,0-.07-.02-.1m-10.91,11.89c-.69,1.89-2.03,3.63-3.89,5.03-2.64,1.99-6,3.09-9.48,3.09h-.25c-3.42,0-6.18-1.21-7.4-3.25-.79-1.33-.89-2.92-.28-4.6,.7-1.92,2.07-3.69,3.97-5.13,2.71-2.05,6.16-3.17,9.7-3.17h.14s.13,0,.13,0c3.36,0,5.95,1.12,7.12,3.08,.83,1.39,.91,3.1,.23,4.95"/><path class="cls-1" d="M332.82,53.3h-6.15s-.09,.03-.1,.07c-.34,.93-1.56,4.29-1.56,4.29l-.59-.99c-1.62-2.7-5-4.19-9.53-4.19-4.9,0-9.57,1.42-13.87,4.23-3.76,2.41-6,5.05-7.28,8.57-1.2,3.3-.89,6.4,.87,8.72,2.05,2.63,5.85,4.08,10.71,4.08,3.29,0,7.27-1.02,10.37-2.64,.02,0,.03,0,.05-.01,.34-.17,.7-.25,1.02-.25,.44,0,.81,.17,1.04,.47,.25,.34,.32,.81,.18,1.33l-.05,.15s0,.07,.01,.1c.02,.03,.06,.05,.09,.05h6.16s.09-.03,.1-.07l8.64-23.74s0-.07-.01-.1c-.02-.03-.06-.05-.09-.05m-10.82,11.94c-.68,1.89-2.03,3.63-3.88,5.03-2.64,1.99-6.01,3.09-9.48,3.09h-.25c-3.42,0-6.18-1.21-7.39-3.25-.79-1.33-.89-2.92-.28-4.6,.7-1.92,2.07-3.69,3.97-5.13,2.71-2.05,6.15-3.17,9.7-3.17h.14s.13,0,.13,0c3.35,0,5.95,1.12,7.11,3.08,.83,1.39,.91,3.1,.23,4.95"/><path class="cls-1" d="M196.03,53.3h-6.75s-.09,.03-.1,.07c-.32,.86-4.25,11.67-4.25,11.68-.75,2.05-3.02,8.3-11.6,8.3-3.08,0-5.34-1.06-6.05-2.83-.59-1.5-.01-3.51,.7-5.47l4.23-11.6s0-.07-.01-.1c-.03-.03-.06-.05-.09-.05h-6.75s-.09,.03-.1,.07c-.54,1.47-4.93,13.54-4.93,13.54-1.2,3.3-.99,6.14,.57,7.79,2.3,2.34,5.24,3.38,9.54,3.38,2.26,0,5.65-.41,9.01-2.35,.3-.15,.59-.22,.87-.22,.39,0,.71,.15,.89,.42,.21,.3,.25,.74,.09,1.19-.01,.03,0,.07,.01,.1s.06,.05,.09,.05h5.99s.08-.03,.1-.07c.58-1.6,7.73-21.23,8.64-23.74,.01-.04,0-.07-.01-.1-.02-.03-.06-.05-.09-.05"/><path class="cls-1" d="M260.54,52.48c-2.25,0-5.64,.41-9.01,2.35-.3,.15-.59,.23-.87,.23-.38,0-.7-.15-.89-.42-.21-.3-.24-.74-.09-1.19,.01-.03,0-.07-.01-.1-.02-.03-.06-.05-.09-.05h-5.99s-.09,.03-.1,.07c-.5,1.38-8.64,23.74-8.64,23.74-.02,.04,0,.07,.01,.1,.02,.03,.06,.05,.09,.05h6.75s.09-.03,.1-.07l4.25-11.68c.75-2.05,3.03-8.3,11.6-8.3,3.08,0,5.34,1.06,6.05,2.84,.59,1.49,.01,3.51-.7,5.47,0,0-3.62,9.95-4.22,11.61-.01,.04-.01,.07,.01,.1,.02,.03,.06,.05,.09,.05h6.75s.09-.03,.11-.07c.53-1.48,4.93-13.54,4.93-13.54,1.2-3.3,.99-6.14-.57-7.79-2.3-2.34-5.23-3.38-9.54-3.38"/><path class="cls-1" d="M292.26,58.75l1.34-3.68s0-.07-.01-.1c-.02-.03-.05-.04-.09-.04h-4.44l2.8-7.68s0-.07-.01-.09c-.02-.03-.05-.04-.09-.04h-6.36s-.08,.03-.1,.07c-.42,1.17-2.83,7.76-2.83,7.76h-3.66s-.08,.03-.09,.07l-1.34,3.68s0,.07,0,.1c.02,.03,.05,.04,.09,.04h3.58s-5.96,16.37-6.67,18.3c-.01,.03,0,.07,.01,.09,.02,.03,.05,.04,.08,.04h6.37s.08-.03,.09-.07c.57-1.56,6.69-18.37,6.69-18.37h4.52s.08-.03,.1-.07"/><path class="cls-1" d="M164.6,48.45c.17-.14,.28-.35,.28-.58,0-.42-.34-.75-.76-.75h-6.16s-.05,0-.07,.03c-.54,.48-6.42,5.5-12,10.26-.91,.7-1.92,1.08-2.84,1.08-1.05,0-1.85-.48-2.19-1.31,0-.01-.01-.02-.02-.03-1.98-4.46-4.12-9.28-4.4-9.96-.02-.04-.05-.06-.1-.06h-7.08c-.41,0-.75,.34-.75,.75,0,.1,.02,.2,.07,.31,1.81,4.16,7.8,17.91,7.8,17.91,0,0-3.45,9.48-4.02,11.04-.01,.03,0,.07,.01,.09,.02,.03,.05,.05,.08,.05h7.48s.08-.03,.1-.07c.48-1.32,4.04-11.11,4.04-11.11l20.51-17.62s.01-.01,.02-.02"/><g><path class="cls-1" d="M410.04,80.06c-.05,0-.11,.05-.13,.1l-1.38,3.78c-.02,.05,0,.1,.06,.1h5.49c.05,0,.11-.05,.13-.1l1.38-3.78c.02-.05-.01-.1-.06-.1h-5.49Z"/><path class="cls-1" d="M422.55,53.88c-9.36,0-18.63,5.31-21.09,12.09-2.37,6.5,3.12,12,11.99,12,6.33,0,12.94-2.57,17.26-6.72,.02-.02,.05-.05,.06-.07,.1-.11,.17-.23,.22-.36,.15-.41-.06-.75-.49-.75h-6.15s-.06,0-.09,.03c-2.46,1.95-5.77,3.07-9.06,3.07-5.28,0-8.26-3.17-6.79-7.2,.73-2,2.32-3.77,4.6-5.09,2.18-1.34,5.11-2.2,7.46-2.2,3.55,0,6.25,1.45,7.06,3.77h-11.11c-.41,0-.87,.34-1.02,.75-.02,.05-.04,.11-.05,.18-.28,1.92,.84,3.26,2.72,3.26h15.27c.2,0,.42-.08,.6-.22,.2-.14,.35-.34,.43-.57,2.33-6.61-2.97-11.98-11.82-11.98"/><path class="cls-1" d="M394.41,54.93c-.05,0-.11,.04-.13,.09l-8.04,22.09c-.02,.05,0,.1,.06,.1h6.37c.05,0,.11-.05,.13-.1l8.04-22.09c.02-.05,0-.09-.06-.09h-6.37Z"/><path class="cls-1" d="M451.84,54.92l2.81-7.71c.02-.06,0-.1-.06-.1h-6.38c-.05,0-.11,.04-.13,.1l-2.81,7.71h-3.63c-.05,0-.11,.05-.13,.1l-1.34,3.69c-.02,.05,0,.1,.06,.1h3.63l-6.66,18.31c-.02,.05,0,.1,.06,.1h6.38c.05,0,.11-.04,.13-.1l6.66-18.31h4.48c.05,0,.11-.04,.13-.1l1.34-3.69c.02-.05-.01-.1-.06-.1h-4.48Z"/><path class="cls-1" d="M393.88,47.12h-6.62s-.08,.02-.11,.06l-16.42,19.63c-.48,.51-1.14,.82-1.73,.82s-1.01-.32-1.13-.83l-2.14-19.62s-.02-.06-.06-.06h-6.62c-.42,0-.88,.34-1.03,.75-.04,.11-.05,.23-.04,.34,0,0,0,.02,0,.02l4.15,28.93s.03,.05,.07,.05h6.62s.08-.02,.11-.05l25.24-28.96c.09-.11,.16-.21,.2-.33,.15-.42-.06-.75-.48-.75"/><path class="cls-1" d="M545.36,54.93c-.05,0-.11,.04-.13,.09l-1.44,3.96-.55-.92c-1.5-2.51-4.65-3.89-8.87-3.89-4.56,0-8.9,1.33-12.9,3.93-3.49,2.24-5.58,4.7-6.77,7.97-1.12,3.07-.83,5.95,.81,8.11,1.9,2.45,5.44,3.8,9.96,3.8,3.07,0,6.76-.94,9.65-2.45,.02,0,.04,0,.05-.02,.32-.15,.64-.23,.94-.23,.91,0,1.39,.72,1.13,1.67l-.06,.18c-.02,.05,.01,.1,.06,.1h5.75c.05,0,.11-.05,.13-.1l8.04-22.1c.02-.05,0-.09-.06-.09h-5.75Zm-7.98,15.78c-2.46,1.85-5.59,2.88-8.82,2.88h-.23c-3.18,0-5.75-1.13-6.88-3.02-.74-1.24-.83-2.71-.26-4.27,.65-1.79,1.93-3.44,3.69-4.77,2.52-1.91,5.72-2.95,9.02-2.95h.25c3.13,0,5.54,1.04,6.62,2.86,.77,1.29,.84,2.88,.22,4.6s-1.89,3.38-3.61,4.68"/><path class="cls-1" d="M595.01,57.08c-1.3-1.94-3.78-2.92-7.35-2.92-3.26,0-6.67,1.09-9.11,2.91-.3,.16-.61,.39-.89,.65-.1-.22-.2-.44-.35-.63-1.01-1.83-3.37-2.92-6.31-2.92-2.15,0-4.45,.52-6.15,1.4h-.02s-.03,.02-.05,.03c-.29,.15-.53,.23-.73,.23-.49,0-.58-.48-.52-.73,.03-.1-.02-.17-.1-.17h-5.87c-.09,0-.2,.09-.24,.19l-7.97,21.9c-.04,.11,0,.2,.1,.2h6.41c.09,0,.2-.09,.24-.2l3.58-9.84c1.07-2.93,2.89-7.95,8.15-7.95,1.73,0,3.09,.71,3.56,1.86,.54,1.31-.19,3.3-.73,4.79l-4.05,11.14c-.04,.11,0,.2,.1,.2h6.4c.09,0,.2-.09,.24-.2l3.58-9.84,.14-.37c.58-1.62,1.52-4.22,3.05-5.59,1.39-1.26,3.28-1.98,5.21-1.98,1.66,0,3.01,.66,3.42,1.69,.53,1.21-.43,3.85-.84,4.96l-4.05,11.14c-.04,.11,0,.2,.1,.2h6.41c.09,0,.2-.09,.24-.2l4.3-11.81c1.06-2.91,1.86-5.72,.11-8.12"/><path class="cls-1" d="M509.78,47.12c-.05,0-.11,.04-.13,.09l-7.97,21.9-8.43-21.95s-.04-.04-.07-.04h-8.08c-.05,0-.11,.04-.13,.09l-10.88,29.9c-.02,.05,0,.1,.06,.1h7.12c.05,0,.11-.05,.13-.1l6.06-16.65c.35-.95,1.41-1.73,2.36-1.73,.54,0,.96,.26,1.13,.68,0,0,0,.02,.02,.02l6.94,17.73s.03,.04,.07,.04h7.97c.05,0,.11-.05,.13-.1l10.88-29.9c.02-.05,0-.09-.06-.09h-7.12Z"/><path class="cls-1" d="M414.66,52.29h4.44s.04,0,.07-.02l4.78-3,2.6,3s.03,.02,.05,.02h4.49c.4,0,.84-.32,.99-.72,.08-.23,.05-.45-.09-.59-.01-.02-4.59-4.71-4.59-4.71-.01-.01-.03-.02-.05-.02h-4.66s-.04,0-.06,.02l-7.87,4.69c-.25,.14-.46,.36-.54,.6-.15,.4,.06,.72,.46,.72"/></g><path class="cls-1" d="M360.43,20.95h-6.18c-.06,0-.12,.05-.14,.1l-1.55,4.26-.6-.99c-1.62-2.7-5-4.19-9.53-4.19-4.9,0-9.57,1.42-13.87,4.23-3.75,2.41-5.99,5.06-7.27,8.57-1.2,3.3-.9,6.4,.87,8.72,2.05,2.63,5.85,4.08,10.71,4.08,3.29,0,7.27-1.01,10.37-2.64,.02,0,.04,0,.06-.02,.34-.16,.69-.25,1.02-.25,.97,0,1.49,.78,1.21,1.8l-.07,.19c-1.81,4.06-7.57,7-13.71,7-1.65,0-3.11-.27-4.37-.73l-1.79,4.94c1.01,.44,2.5,.85,4.6,.85,9.38,0,18.73-5.11,21.62-11.97l8.68-23.86c.02-.06,0-.1-.07-.1Zm-10.87,11.94c-.69,1.89-2.03,3.63-3.89,5.03-2.64,1.99-6,3.09-9.48,3.09h-.25c-3.42,0-6.19-1.22-7.4-3.25-.79-1.33-.89-2.92-.27-4.6,.7-1.92,2.07-3.7,3.97-5.13,2.71-2.05,6.15-3.17,9.7-3.17h.26c3.36,0,5.96,1.12,7.12,3.08,.83,1.39,.91,3.1,.24,4.95Z"/></g></g></g></svg>